<svg width="55" height="55" viewBox="0 0 55 55" fill="none" xmlns="http://www.w3.org/2000/svg">
  <rect x="8" y="8" width="39" height="39" rx="6" fill="#222222" stroke="#999999" stroke-width="2"/>
  <rect x="11" y="11" width="33" height="33" rx="3" fill="#2E2E2E"/>

  <!-- checker texture drawn with simple rects for broad SVG renderer compatibility -->
  <rect x="11" y="11" width="5.5" height="5.5" fill="#7A7A7A"/>
  <rect x="16.5" y="11" width="5.5" height="5.5" fill="#2E2E2E"/>
  <rect x="22" y="11" width="5.5" height="5.5" fill="#7A7A7A"/>
  <rect x="27.5" y="11" width="5.5" height="5.5" fill="#2E2E2E"/>
  <rect x="33" y="11" width="5.5" height="5.5" fill="#7A7A7A"/>
  <rect x="38.5" y="11" width="5.5" height="5.5" fill="#2E2E2E"/>

  <rect x="11" y="16.5" width="5.5" height="5.5" fill="#2E2E2E"/>
  <rect x="16.5" y="16.5" width="5.5" height="5.5" fill="#7A7A7A"/>
  <rect x="22" y="16.5" width="5.5" height="5.5" fill="#2E2E2E"/>
  <rect x="27.5" y="16.5" width="5.5" height="5.5" fill="#7A7A7A"/>
  <rect x="33" y="16.5" width="5.5" height="5.5" fill="#2E2E2E"/>
  <rect x="38.5" y="16.5" width="5.5" height="5.5" fill="#7A7A7A"/>

  <rect x="11" y="22" width="5.5" height="5.5" fill="#7A7A7A"/>
  <rect x="16.5" y="22" width="5.5" height="5.5" fill="#2E2E2E"/>
  <rect x="22" y="22" width="5.5" height="5.5" fill="#7A7A7A"/>
  <rect x="27.5" y="22" width="5.5" height="5.5" fill="#2E2E2E"/>
  <rect x="33" y="22" width="5.5" height="5.5" fill="#7A7A7A"/>
  <rect x="38.5" y="22" width="5.5" height="5.5" fill="#2E2E2E"/>

  <rect x="11" y="27.5" width="5.5" height="5.5" fill="#2E2E2E"/>
  <rect x="16.5" y="27.5" width="5.5" height="5.5" fill="#7A7A7A"/>
  <rect x="22" y="27.5" width="5.5" height="5.5" fill="#2E2E2E"/>
  <rect x="27.5" y="27.5" width="5.5" height="5.5" fill="#7A7A7A"/>
  <rect x="33" y="27.5" width="5.5" height="5.5" fill="#2E2E2E"/>
  <rect x="38.5" y="27.5" width="5.5" height="5.5" fill="#7A7A7A"/>

  <rect x="11" y="33" width="5.5" height="5.5" fill="#7A7A7A"/>
  <rect x="16.5" y="33" width="5.5" height="5.5" fill="#2E2E2E"/>
  <rect x="22" y="33" width="5.5" height="5.5" fill="#7A7A7A"/>
  <rect x="27.5" y="33" width="5.5" height="5.5" fill="#2E2E2E"/>
  <rect x="33" y="33" width="5.5" height="5.5" fill="#7A7A7A"/>
  <rect x="38.5" y="33" width="5.5" height="5.5" fill="#2E2E2E"/>

  <rect x="11" y="38.5" width="5.5" height="5.5" fill="#2E2E2E"/>
  <rect x="16.5" y="38.5" width="5.5" height="5.5" fill="#7A7A7A"/>
  <rect x="22" y="38.5" width="5.5" height="5.5" fill="#2E2E2E"/>
  <rect x="27.5" y="38.5" width="5.5" height="5.5" fill="#7A7A7A"/>
  <rect x="33" y="38.5" width="5.5" height="5.5" fill="#2E2E2E"/>
  <rect x="38.5" y="38.5" width="5.5" height="5.5" fill="#7A7A7A"/>

  <path d="M11 11H44V44L11 11Z" fill="#999999" fill-opacity="0.28"/>
  <rect x="11" y="11" width="33" height="33" rx="3" fill="none" stroke="#1A1A1A" stroke-width="1"/>
</svg>
